<svg xmlns="http://www.w3.org/2000/svg" width="1920" height="1080" viewBox="0 0 1920 1080">
  <defs>
    <style>
      .cls-1 {
        fill-rule: evenodd;
      }
    </style>
  </defs>
  <path id="Color_Fill_1" data-name="Color Fill 1" class="cls-1" d="M1317,37l8,1c14.59,5.847,23.03,25.964,20,44,11.62,1.953,16.95,14.946,12,27-12.97,31.6-48.07,56.136-34,107,24.42,88.3,113.1,170.741,86,293-13.03,58.779-45.66,105.9-75,150-13.79,20.729-36.63,43.717-42,71-11.56,58.724,30.48,143.034,58,164,25.79,19.648,44.43,9.445,54,49,1.37,5.677,3.58,16.512,1,23-8.59,17.556-72.86,15.321-94,8q-17.505-9.5-35-19c-21.03,33.361-69.89,15.319-116,22l-113,2c-46.91,2.424-103.536,4.726-151-3-31.783-5.174-87.757-15.766-120-10,8.749,8.609,27.218,8.541,41,12,34.218,8.588,125.308,28.09,129,61-0.667.67-1.333,1.33-2,2-36.749,9.56-87.221-4.66-121-12-70.709-15.37-141.19-21.01-216-33-35.775-5.732-102.938-6.63-99-47,6.785-69.557,142.055-50.27,175-94,22.827-30.3,29.337-82.083,45-118,22.486-51.563,55.974-93,89-134,75.939-94.262,209.96-136.847,275-241,39.02-62.477,31.91-117.331,5-187-7.07-18.29-49.09-69.453-38-89h1c21.04-.237,31.07,8.561,49,11-3.49-8.5-8.23-21.363-5-33,19.47,2.639,28.44,22.4,43,31,29.57-15,48.46-37.214,88-47,15.91-3.937,26.64,3.766,38,6C1290.4,57.423,1308.87,44.521,1317,37ZM1186,806c-8.29,24.141-18.02,42.9-38,55-6.62,4.007-16.79,4.594-21,11-2.03,16.252,82.37,36.121,104,25v-1q-5.505-9.5-11-19C1207.74,847.248,1209.59,823.348,1186,806Z"/>
</svg>
